G75*
%MOIN*%
%OFA0B0*%
%FSLAX25Y25*%
%IPPOS*%
%LPD*%
%AMOC8*
5,1,8,0,0,1.08239X$1,22.5*
%
%ADD10C,0.00000*%
%ADD11C,0.18100*%
%ADD12C,0.01769*%
%ADD13R,0.03750X0.05324*%
%ADD14C,0.05400*%
%ADD15R,0.05718X0.04537*%
%ADD16R,0.04537X0.05718*%
%ADD17R,0.06506X0.01781*%
%ADD18R,0.01781X0.06506*%
%ADD19C,0.04362*%
%ADD20R,0.04537X0.04931*%
%ADD21R,0.03356X0.03553*%
%ADD22R,0.05324X0.03750*%
%ADD23R,0.03600X0.06600*%
%ADD24R,0.01700X0.06100*%
%ADD25R,0.12200X0.07500*%
%ADD26R,0.05718X0.06506*%
%ADD27R,0.06506X0.05718*%
%ADD28R,0.09261X0.06899*%
%ADD29R,0.03553X0.03553*%
%ADD30R,0.02175X0.02490*%
%ADD31R,0.07687X0.06899*%
%ADD32C,0.04537*%
%ADD33R,0.04931X0.04537*%
%ADD34C,0.03026*%
%ADD35C,0.02732*%
%ADD36R,0.18317X0.10049*%
%ADD37R,0.26191X0.08868*%
%ADD38C,0.04362*%
%ADD39R,0.06112X0.12411*%
%ADD40C,0.03378*%
D10*
X0007100Y0011300D02*
X0007100Y0291300D01*
X0252100Y0291300D01*
X0252100Y0011300D01*
X0007100Y0011300D01*
X0013350Y0026300D02*
X0013353Y0026515D01*
X0013361Y0026729D01*
X0013374Y0026944D01*
X0013392Y0027158D01*
X0013416Y0027371D01*
X0013445Y0027584D01*
X0013479Y0027796D01*
X0013518Y0028007D01*
X0013563Y0028217D01*
X0013612Y0028426D01*
X0013667Y0028634D01*
X0013727Y0028840D01*
X0013792Y0029045D01*
X0013861Y0029248D01*
X0013936Y0029449D01*
X0014016Y0029648D01*
X0014101Y0029846D01*
X0014190Y0030041D01*
X0014284Y0030234D01*
X0014383Y0030425D01*
X0014487Y0030613D01*
X0014595Y0030798D01*
X0014708Y0030981D01*
X0014825Y0031161D01*
X0014946Y0031338D01*
X0015072Y0031512D01*
X0015202Y0031683D01*
X0015336Y0031851D01*
X0015474Y0032015D01*
X0015617Y0032176D01*
X0015763Y0032333D01*
X0015913Y0032487D01*
X0016067Y0032637D01*
X0016224Y0032783D01*
X0016385Y0032926D01*
X0016549Y0033064D01*
X0016717Y0033198D01*
X0016888Y0033328D01*
X0017062Y0033454D01*
X0017239Y0033575D01*
X0017419Y0033692D01*
X0017602Y0033805D01*
X0017787Y0033913D01*
X0017975Y0034017D01*
X0018166Y0034116D01*
X0018359Y0034210D01*
X0018554Y0034299D01*
X0018752Y0034384D01*
X0018951Y0034464D01*
X0019152Y0034539D01*
X0019355Y0034608D01*
X0019560Y0034673D01*
X0019766Y0034733D01*
X0019974Y0034788D01*
X0020183Y0034837D01*
X0020393Y0034882D01*
X0020604Y0034921D01*
X0020816Y0034955D01*
X0021029Y0034984D01*
X0021242Y0035008D01*
X0021456Y0035026D01*
X0021671Y0035039D01*
X0021885Y0035047D01*
X0022100Y0035050D01*
X0022315Y0035047D01*
X0022529Y0035039D01*
X0022744Y0035026D01*
X0022958Y0035008D01*
X0023171Y0034984D01*
X0023384Y0034955D01*
X0023596Y0034921D01*
X0023807Y0034882D01*
X0024017Y0034837D01*
X0024226Y0034788D01*
X0024434Y0034733D01*
X0024640Y0034673D01*
X0024845Y0034608D01*
X0025048Y0034539D01*
X0025249Y0034464D01*
X0025448Y0034384D01*
X0025646Y0034299D01*
X0025841Y0034210D01*
X0026034Y0034116D01*
X0026225Y0034017D01*
X0026413Y0033913D01*
X0026598Y0033805D01*
X0026781Y0033692D01*
X0026961Y0033575D01*
X0027138Y0033454D01*
X0027312Y0033328D01*
X0027483Y0033198D01*
X0027651Y0033064D01*
X0027815Y0032926D01*
X0027976Y0032783D01*
X0028133Y0032637D01*
X0028287Y0032487D01*
X0028437Y0032333D01*
X0028583Y0032176D01*
X0028726Y0032015D01*
X0028864Y0031851D01*
X0028998Y0031683D01*
X0029128Y0031512D01*
X0029254Y0031338D01*
X0029375Y0031161D01*
X0029492Y0030981D01*
X0029605Y0030798D01*
X0029713Y0030613D01*
X0029817Y0030425D01*
X0029916Y0030234D01*
X0030010Y0030041D01*
X0030099Y0029846D01*
X0030184Y0029648D01*
X0030264Y0029449D01*
X0030339Y0029248D01*
X0030408Y0029045D01*
X0030473Y0028840D01*
X0030533Y0028634D01*
X0030588Y0028426D01*
X0030637Y0028217D01*
X0030682Y0028007D01*
X0030721Y0027796D01*
X0030755Y0027584D01*
X0030784Y0027371D01*
X0030808Y0027158D01*
X0030826Y0026944D01*
X0030839Y0026729D01*
X0030847Y0026515D01*
X0030850Y0026300D01*
X0030847Y0026085D01*
X0030839Y0025871D01*
X0030826Y0025656D01*
X0030808Y0025442D01*
X0030784Y0025229D01*
X0030755Y0025016D01*
X0030721Y0024804D01*
X0030682Y0024593D01*
X0030637Y0024383D01*
X0030588Y0024174D01*
X0030533Y0023966D01*
X0030473Y0023760D01*
X0030408Y0023555D01*
X0030339Y0023352D01*
X0030264Y0023151D01*
X0030184Y0022952D01*
X0030099Y0022754D01*
X0030010Y0022559D01*
X0029916Y0022366D01*
X0029817Y0022175D01*
X0029713Y0021987D01*
X0029605Y0021802D01*
X0029492Y0021619D01*
X0029375Y0021439D01*
X0029254Y0021262D01*
X0029128Y0021088D01*
X0028998Y0020917D01*
X0028864Y0020749D01*
X0028726Y0020585D01*
X0028583Y0020424D01*
X0028437Y0020267D01*
X0028287Y0020113D01*
X0028133Y0019963D01*
X0027976Y0019817D01*
X0027815Y0019674D01*
X0027651Y0019536D01*
X0027483Y0019402D01*
X0027312Y0019272D01*
X0027138Y0019146D01*
X0026961Y0019025D01*
X0026781Y0018908D01*
X0026598Y0018795D01*
X0026413Y0018687D01*
X0026225Y0018583D01*
X0026034Y0018484D01*
X0025841Y0018390D01*
X0025646Y0018301D01*
X0025448Y0018216D01*
X0025249Y0018136D01*
X0025048Y0018061D01*
X0024845Y0017992D01*
X0024640Y0017927D01*
X0024434Y0017867D01*
X0024226Y0017812D01*
X0024017Y0017763D01*
X0023807Y0017718D01*
X0023596Y0017679D01*
X0023384Y0017645D01*
X0023171Y0017616D01*
X0022958Y0017592D01*
X0022744Y0017574D01*
X0022529Y0017561D01*
X0022315Y0017553D01*
X0022100Y0017550D01*
X0021885Y0017553D01*
X0021671Y0017561D01*
X0021456Y0017574D01*
X0021242Y0017592D01*
X0021029Y0017616D01*
X0020816Y0017645D01*
X0020604Y0017679D01*
X0020393Y0017718D01*
X0020183Y0017763D01*
X0019974Y0017812D01*
X0019766Y0017867D01*
X0019560Y0017927D01*
X0019355Y0017992D01*
X0019152Y0018061D01*
X0018951Y0018136D01*
X0018752Y0018216D01*
X0018554Y0018301D01*
X0018359Y0018390D01*
X0018166Y0018484D01*
X0017975Y0018583D01*
X0017787Y0018687D01*
X0017602Y0018795D01*
X0017419Y0018908D01*
X0017239Y0019025D01*
X0017062Y0019146D01*
X0016888Y0019272D01*
X0016717Y0019402D01*
X0016549Y0019536D01*
X0016385Y0019674D01*
X0016224Y0019817D01*
X0016067Y0019963D01*
X0015913Y0020113D01*
X0015763Y0020267D01*
X0015617Y0020424D01*
X0015474Y0020585D01*
X0015336Y0020749D01*
X0015202Y0020917D01*
X0015072Y0021088D01*
X0014946Y0021262D01*
X0014825Y0021439D01*
X0014708Y0021619D01*
X0014595Y0021802D01*
X0014487Y0021987D01*
X0014383Y0022175D01*
X0014284Y0022366D01*
X0014190Y0022559D01*
X0014101Y0022754D01*
X0014016Y0022952D01*
X0013936Y0023151D01*
X0013861Y0023352D01*
X0013792Y0023555D01*
X0013727Y0023760D01*
X0013667Y0023966D01*
X0013612Y0024174D01*
X0013563Y0024383D01*
X0013518Y0024593D01*
X0013479Y0024804D01*
X0013445Y0025016D01*
X0013416Y0025229D01*
X0013392Y0025442D01*
X0013374Y0025656D01*
X0013361Y0025871D01*
X0013353Y0026085D01*
X0013350Y0026300D01*
X0013350Y0276300D02*
X0013353Y0276515D01*
X0013361Y0276729D01*
X0013374Y0276944D01*
X0013392Y0277158D01*
X0013416Y0277371D01*
X0013445Y0277584D01*
X0013479Y0277796D01*
X0013518Y0278007D01*
X0013563Y0278217D01*
X0013612Y0278426D01*
X0013667Y0278634D01*
X0013727Y0278840D01*
X0013792Y0279045D01*
X0013861Y0279248D01*
X0013936Y0279449D01*
X0014016Y0279648D01*
X0014101Y0279846D01*
X0014190Y0280041D01*
X0014284Y0280234D01*
X0014383Y0280425D01*
X0014487Y0280613D01*
X0014595Y0280798D01*
X0014708Y0280981D01*
X0014825Y0281161D01*
X0014946Y0281338D01*
X0015072Y0281512D01*
X0015202Y0281683D01*
X0015336Y0281851D01*
X0015474Y0282015D01*
X0015617Y0282176D01*
X0015763Y0282333D01*
X0015913Y0282487D01*
X0016067Y0282637D01*
X0016224Y0282783D01*
X0016385Y0282926D01*
X0016549Y0283064D01*
X0016717Y0283198D01*
X0016888Y0283328D01*
X0017062Y0283454D01*
X0017239Y0283575D01*
X0017419Y0283692D01*
X0017602Y0283805D01*
X0017787Y0283913D01*
X0017975Y0284017D01*
X0018166Y0284116D01*
X0018359Y0284210D01*
X0018554Y0284299D01*
X0018752Y0284384D01*
X0018951Y0284464D01*
X0019152Y0284539D01*
X0019355Y0284608D01*
X0019560Y0284673D01*
X0019766Y0284733D01*
X0019974Y0284788D01*
X0020183Y0284837D01*
X0020393Y0284882D01*
X0020604Y0284921D01*
X0020816Y0284955D01*
X0021029Y0284984D01*
X0021242Y0285008D01*
X0021456Y0285026D01*
X0021671Y0285039D01*
X0021885Y0285047D01*
X0022100Y0285050D01*
X0022315Y0285047D01*
X0022529Y0285039D01*
X0022744Y0285026D01*
X0022958Y0285008D01*
X0023171Y0284984D01*
X0023384Y0284955D01*
X0023596Y0284921D01*
X0023807Y0284882D01*
X0024017Y0284837D01*
X0024226Y0284788D01*
X0024434Y0284733D01*
X0024640Y0284673D01*
X0024845Y0284608D01*
X0025048Y0284539D01*
X0025249Y0284464D01*
X0025448Y0284384D01*
X0025646Y0284299D01*
X0025841Y0284210D01*
X0026034Y0284116D01*
X0026225Y0284017D01*
X0026413Y0283913D01*
X0026598Y0283805D01*
X0026781Y0283692D01*
X0026961Y0283575D01*
X0027138Y0283454D01*
X0027312Y0283328D01*
X0027483Y0283198D01*
X0027651Y0283064D01*
X0027815Y0282926D01*
X0027976Y0282783D01*
X0028133Y0282637D01*
X0028287Y0282487D01*
X0028437Y0282333D01*
X0028583Y0282176D01*
X0028726Y0282015D01*
X0028864Y0281851D01*
X0028998Y0281683D01*
X0029128Y0281512D01*
X0029254Y0281338D01*
X0029375Y0281161D01*
X0029492Y0280981D01*
X0029605Y0280798D01*
X0029713Y0280613D01*
X0029817Y0280425D01*
X0029916Y0280234D01*
X0030010Y0280041D01*
X0030099Y0279846D01*
X0030184Y0279648D01*
X0030264Y0279449D01*
X0030339Y0279248D01*
X0030408Y0279045D01*
X0030473Y0278840D01*
X0030533Y0278634D01*
X0030588Y0278426D01*
X0030637Y0278217D01*
X0030682Y0278007D01*
X0030721Y0277796D01*
X0030755Y0277584D01*
X0030784Y0277371D01*
X0030808Y0277158D01*
X0030826Y0276944D01*
X0030839Y0276729D01*
X0030847Y0276515D01*
X0030850Y0276300D01*
X0030847Y0276085D01*
X0030839Y0275871D01*
X0030826Y0275656D01*
X0030808Y0275442D01*
X0030784Y0275229D01*
X0030755Y0275016D01*
X0030721Y0274804D01*
X0030682Y0274593D01*
X0030637Y0274383D01*
X0030588Y0274174D01*
X0030533Y0273966D01*
X0030473Y0273760D01*
X0030408Y0273555D01*
X0030339Y0273352D01*
X0030264Y0273151D01*
X0030184Y0272952D01*
X0030099Y0272754D01*
X0030010Y0272559D01*
X0029916Y0272366D01*
X0029817Y0272175D01*
X0029713Y0271987D01*
X0029605Y0271802D01*
X0029492Y0271619D01*
X0029375Y0271439D01*
X0029254Y0271262D01*
X0029128Y0271088D01*
X0028998Y0270917D01*
X0028864Y0270749D01*
X0028726Y0270585D01*
X0028583Y0270424D01*
X0028437Y0270267D01*
X0028287Y0270113D01*
X0028133Y0269963D01*
X0027976Y0269817D01*
X0027815Y0269674D01*
X0027651Y0269536D01*
X0027483Y0269402D01*
X0027312Y0269272D01*
X0027138Y0269146D01*
X0026961Y0269025D01*
X0026781Y0268908D01*
X0026598Y0268795D01*
X0026413Y0268687D01*
X0026225Y0268583D01*
X0026034Y0268484D01*
X0025841Y0268390D01*
X0025646Y0268301D01*
X0025448Y0268216D01*
X0025249Y0268136D01*
X0025048Y0268061D01*
X0024845Y0267992D01*
X0024640Y0267927D01*
X0024434Y0267867D01*
X0024226Y0267812D01*
X0024017Y0267763D01*
X0023807Y0267718D01*
X0023596Y0267679D01*
X0023384Y0267645D01*
X0023171Y0267616D01*
X0022958Y0267592D01*
X0022744Y0267574D01*
X0022529Y0267561D01*
X0022315Y0267553D01*
X0022100Y0267550D01*
X0021885Y0267553D01*
X0021671Y0267561D01*
X0021456Y0267574D01*
X0021242Y0267592D01*
X0021029Y0267616D01*
X0020816Y0267645D01*
X0020604Y0267679D01*
X0020393Y0267718D01*
X0020183Y0267763D01*
X0019974Y0267812D01*
X0019766Y0267867D01*
X0019560Y0267927D01*
X0019355Y0267992D01*
X0019152Y0268061D01*
X0018951Y0268136D01*
X0018752Y0268216D01*
X0018554Y0268301D01*
X0018359Y0268390D01*
X0018166Y0268484D01*
X0017975Y0268583D01*
X0017787Y0268687D01*
X0017602Y0268795D01*
X0017419Y0268908D01*
X0017239Y0269025D01*
X0017062Y0269146D01*
X0016888Y0269272D01*
X0016717Y0269402D01*
X0016549Y0269536D01*
X0016385Y0269674D01*
X0016224Y0269817D01*
X0016067Y0269963D01*
X0015913Y0270113D01*
X0015763Y0270267D01*
X0015617Y0270424D01*
X0015474Y0270585D01*
X0015336Y0270749D01*
X0015202Y0270917D01*
X0015072Y0271088D01*
X0014946Y0271262D01*
X0014825Y0271439D01*
X0014708Y0271619D01*
X0014595Y0271802D01*
X0014487Y0271987D01*
X0014383Y0272175D01*
X0014284Y0272366D01*
X0014190Y0272559D01*
X0014101Y0272754D01*
X0014016Y0272952D01*
X0013936Y0273151D01*
X0013861Y0273352D01*
X0013792Y0273555D01*
X0013727Y0273760D01*
X0013667Y0273966D01*
X0013612Y0274174D01*
X0013563Y0274383D01*
X0013518Y0274593D01*
X0013479Y0274804D01*
X0013445Y0275016D01*
X0013416Y0275229D01*
X0013392Y0275442D01*
X0013374Y0275656D01*
X0013361Y0275871D01*
X0013353Y0276085D01*
X0013350Y0276300D01*
X0228350Y0276300D02*
X0228353Y0276515D01*
X0228361Y0276729D01*
X0228374Y0276944D01*
X0228392Y0277158D01*
X0228416Y0277371D01*
X0228445Y0277584D01*
X0228479Y0277796D01*
X0228518Y0278007D01*
X0228563Y0278217D01*
X0228612Y0278426D01*
X0228667Y0278634D01*
X0228727Y0278840D01*
X0228792Y0279045D01*
X0228861Y0279248D01*
X0228936Y0279449D01*
X0229016Y0279648D01*
X0229101Y0279846D01*
X0229190Y0280041D01*
X0229284Y0280234D01*
X0229383Y0280425D01*
X0229487Y0280613D01*
X0229595Y0280798D01*
X0229708Y0280981D01*
X0229825Y0281161D01*
X0229946Y0281338D01*
X0230072Y0281512D01*
X0230202Y0281683D01*
X0230336Y0281851D01*
X0230474Y0282015D01*
X0230617Y0282176D01*
X0230763Y0282333D01*
X0230913Y0282487D01*
X0231067Y0282637D01*
X0231224Y0282783D01*
X0231385Y0282926D01*
X0231549Y0283064D01*
X0231717Y0283198D01*
X0231888Y0283328D01*
X0232062Y0283454D01*
X0232239Y0283575D01*
X0232419Y0283692D01*
X0232602Y0283805D01*
X0232787Y0283913D01*
X0232975Y0284017D01*
X0233166Y0284116D01*
X0233359Y0284210D01*
X0233554Y0284299D01*
X0233752Y0284384D01*
X0233951Y0284464D01*
X0234152Y0284539D01*
X0234355Y0284608D01*
X0234560Y0284673D01*
X0234766Y0284733D01*
X0234974Y0284788D01*
X0235183Y0284837D01*
X0235393Y0284882D01*
X0235604Y0284921D01*
X0235816Y0284955D01*
X0236029Y0284984D01*
X0236242Y0285008D01*
X0236456Y0285026D01*
X0236671Y0285039D01*
X0236885Y0285047D01*
X0237100Y0285050D01*
X0237315Y0285047D01*
X0237529Y0285039D01*
X0237744Y0285026D01*
X0237958Y0285008D01*
X0238171Y0284984D01*
X0238384Y0284955D01*
X0238596Y0284921D01*
X0238807Y0284882D01*
X0239017Y0284837D01*
X0239226Y0284788D01*
X0239434Y0284733D01*
X0239640Y0284673D01*
X0239845Y0284608D01*
X0240048Y0284539D01*
X0240249Y0284464D01*
X0240448Y0284384D01*
X0240646Y0284299D01*
X0240841Y0284210D01*
X0241034Y0284116D01*
X0241225Y0284017D01*
X0241413Y0283913D01*
X0241598Y0283805D01*
X0241781Y0283692D01*
X0241961Y0283575D01*
X0242138Y0283454D01*
X0242312Y0283328D01*
X0242483Y0283198D01*
X0242651Y0283064D01*
X0242815Y0282926D01*
X0242976Y0282783D01*
X0243133Y0282637D01*
X0243287Y0282487D01*
X0243437Y0282333D01*
X0243583Y0282176D01*
X0243726Y0282015D01*
X0243864Y0281851D01*
X0243998Y0281683D01*
X0244128Y0281512D01*
X0244254Y0281338D01*
X0244375Y0281161D01*
X0244492Y0280981D01*
X0244605Y0280798D01*
X0244713Y0280613D01*
X0244817Y0280425D01*
X0244916Y0280234D01*
X0245010Y0280041D01*
X0245099Y0279846D01*
X0245184Y0279648D01*
X0245264Y0279449D01*
X0245339Y0279248D01*
X0245408Y0279045D01*
X0245473Y0278840D01*
X0245533Y0278634D01*
X0245588Y0278426D01*
X0245637Y0278217D01*
X0245682Y0278007D01*
X0245721Y0277796D01*
X0245755Y0277584D01*
X0245784Y0277371D01*
X0245808Y0277158D01*
X0245826Y0276944D01*
X0245839Y0276729D01*
X0245847Y0276515D01*
X0245850Y0276300D01*
X0245847Y0276085D01*
X0245839Y0275871D01*
X0245826Y0275656D01*
X0245808Y0275442D01*
X0245784Y0275229D01*
X0245755Y0275016D01*
X0245721Y0274804D01*
X0245682Y0274593D01*
X0245637Y0274383D01*
X0245588Y0274174D01*
X0245533Y0273966D01*
X0245473Y0273760D01*
X0245408Y0273555D01*
X0245339Y0273352D01*
X0245264Y0273151D01*
X0245184Y0272952D01*
X0245099Y0272754D01*
X0245010Y0272559D01*
X0244916Y0272366D01*
X0244817Y0272175D01*
X0244713Y0271987D01*
X0244605Y0271802D01*
X0244492Y0271619D01*
X0244375Y0271439D01*
X0244254Y0271262D01*
X0244128Y0271088D01*
X0243998Y0270917D01*
X0243864Y0270749D01*
X0243726Y0270585D01*
X0243583Y0270424D01*
X0243437Y0270267D01*
X0243287Y0270113D01*
X0243133Y0269963D01*
X0242976Y0269817D01*
X0242815Y0269674D01*
X0242651Y0269536D01*
X0242483Y0269402D01*
X0242312Y0269272D01*
X0242138Y0269146D01*
X0241961Y0269025D01*
X0241781Y0268908D01*
X0241598Y0268795D01*
X0241413Y0268687D01*
X0241225Y0268583D01*
X0241034Y0268484D01*
X0240841Y0268390D01*
X0240646Y0268301D01*
X0240448Y0268216D01*
X0240249Y0268136D01*
X0240048Y0268061D01*
X0239845Y0267992D01*
X0239640Y0267927D01*
X0239434Y0267867D01*
X0239226Y0267812D01*
X0239017Y0267763D01*
X0238807Y0267718D01*
X0238596Y0267679D01*
X0238384Y0267645D01*
X0238171Y0267616D01*
X0237958Y0267592D01*
X0237744Y0267574D01*
X0237529Y0267561D01*
X0237315Y0267553D01*
X0237100Y0267550D01*
X0236885Y0267553D01*
X0236671Y0267561D01*
X0236456Y0267574D01*
X0236242Y0267592D01*
X0236029Y0267616D01*
X0235816Y0267645D01*
X0235604Y0267679D01*
X0235393Y0267718D01*
X0235183Y0267763D01*
X0234974Y0267812D01*
X0234766Y0267867D01*
X0234560Y0267927D01*
X0234355Y0267992D01*
X0234152Y0268061D01*
X0233951Y0268136D01*
X0233752Y0268216D01*
X0233554Y0268301D01*
X0233359Y0268390D01*
X0233166Y0268484D01*
X0232975Y0268583D01*
X0232787Y0268687D01*
X0232602Y0268795D01*
X0232419Y0268908D01*
X0232239Y0269025D01*
X0232062Y0269146D01*
X0231888Y0269272D01*
X0231717Y0269402D01*
X0231549Y0269536D01*
X0231385Y0269674D01*
X0231224Y0269817D01*
X0231067Y0269963D01*
X0230913Y0270113D01*
X0230763Y0270267D01*
X0230617Y0270424D01*
X0230474Y0270585D01*
X0230336Y0270749D01*
X0230202Y0270917D01*
X0230072Y0271088D01*
X0229946Y0271262D01*
X0229825Y0271439D01*
X0229708Y0271619D01*
X0229595Y0271802D01*
X0229487Y0271987D01*
X0229383Y0272175D01*
X0229284Y0272366D01*
X0229190Y0272559D01*
X0229101Y0272754D01*
X0229016Y0272952D01*
X0228936Y0273151D01*
X0228861Y0273352D01*
X0228792Y0273555D01*
X0228727Y0273760D01*
X0228667Y0273966D01*
X0228612Y0274174D01*
X0228563Y0274383D01*
X0228518Y0274593D01*
X0228479Y0274804D01*
X0228445Y0275016D01*
X0228416Y0275229D01*
X0228392Y0275442D01*
X0228374Y0275656D01*
X0228361Y0275871D01*
X0228353Y0276085D01*
X0228350Y0276300D01*
X0228350Y0026300D02*
X0228353Y0026515D01*
X0228361Y0026729D01*
X0228374Y0026944D01*
X0228392Y0027158D01*
X0228416Y0027371D01*
X0228445Y0027584D01*
X0228479Y0027796D01*
X0228518Y0028007D01*
X0228563Y0028217D01*
X0228612Y0028426D01*
X0228667Y0028634D01*
X0228727Y0028840D01*
X0228792Y0029045D01*
X0228861Y0029248D01*
X0228936Y0029449D01*
X0229016Y0029648D01*
X0229101Y0029846D01*
X0229190Y0030041D01*
X0229284Y0030234D01*
X0229383Y0030425D01*
X0229487Y0030613D01*
X0229595Y0030798D01*
X0229708Y0030981D01*
X0229825Y0031161D01*
X0229946Y0031338D01*
X0230072Y0031512D01*
X0230202Y0031683D01*
X0230336Y0031851D01*
X0230474Y0032015D01*
X0230617Y0032176D01*
X0230763Y0032333D01*
X0230913Y0032487D01*
X0231067Y0032637D01*
X0231224Y0032783D01*
X0231385Y0032926D01*
X0231549Y0033064D01*
X0231717Y0033198D01*
X0231888Y0033328D01*
X0232062Y0033454D01*
X0232239Y0033575D01*
X0232419Y0033692D01*
X0232602Y0033805D01*
X0232787Y0033913D01*
X0232975Y0034017D01*
X0233166Y0034116D01*
X0233359Y0034210D01*
X0233554Y0034299D01*
X0233752Y0034384D01*
X0233951Y0034464D01*
X0234152Y0034539D01*
X0234355Y0034608D01*
X0234560Y0034673D01*
X0234766Y0034733D01*
X0234974Y0034788D01*
X0235183Y0034837D01*
X0235393Y0034882D01*
X0235604Y0034921D01*
X0235816Y0034955D01*
X0236029Y0034984D01*
X0236242Y0035008D01*
X0236456Y0035026D01*
X0236671Y0035039D01*
X0236885Y0035047D01*
X0237100Y0035050D01*
X0237315Y0035047D01*
X0237529Y0035039D01*
X0237744Y0035026D01*
X0237958Y0035008D01*
X0238171Y0034984D01*
X0238384Y0034955D01*
X0238596Y0034921D01*
X0238807Y0034882D01*
X0239017Y0034837D01*
X0239226Y0034788D01*
X0239434Y0034733D01*
X0239640Y0034673D01*
X0239845Y0034608D01*
X0240048Y0034539D01*
X0240249Y0034464D01*
X0240448Y0034384D01*
X0240646Y0034299D01*
X0240841Y0034210D01*
X0241034Y0034116D01*
X0241225Y0034017D01*
X0241413Y0033913D01*
X0241598Y0033805D01*
X0241781Y0033692D01*
X0241961Y0033575D01*
X0242138Y0033454D01*
X0242312Y0033328D01*
X0242483Y0033198D01*
X0242651Y0033064D01*
X0242815Y0032926D01*
X0242976Y0032783D01*
X0243133Y0032637D01*
X0243287Y0032487D01*
X0243437Y0032333D01*
X0243583Y0032176D01*
X0243726Y0032015D01*
X0243864Y0031851D01*
X0243998Y0031683D01*
X0244128Y0031512D01*
X0244254Y0031338D01*
X0244375Y0031161D01*
X0244492Y0030981D01*
X0244605Y0030798D01*
X0244713Y0030613D01*
X0244817Y0030425D01*
X0244916Y0030234D01*
X0245010Y0030041D01*
X0245099Y0029846D01*
X0245184Y0029648D01*
X0245264Y0029449D01*
X0245339Y0029248D01*
X0245408Y0029045D01*
X0245473Y0028840D01*
X0245533Y0028634D01*
X0245588Y0028426D01*
X0245637Y0028217D01*
X0245682Y0028007D01*
X0245721Y0027796D01*
X0245755Y0027584D01*
X0245784Y0027371D01*
X0245808Y0027158D01*
X0245826Y0026944D01*
X0245839Y0026729D01*
X0245847Y0026515D01*
X0245850Y0026300D01*
X0245847Y0026085D01*
X0245839Y0025871D01*
X0245826Y0025656D01*
X0245808Y0025442D01*
X0245784Y0025229D01*
X0245755Y0025016D01*
X0245721Y0024804D01*
X0245682Y0024593D01*
X0245637Y0024383D01*
X0245588Y0024174D01*
X0245533Y0023966D01*
X0245473Y0023760D01*
X0245408Y0023555D01*
X0245339Y0023352D01*
X0245264Y0023151D01*
X0245184Y0022952D01*
X0245099Y0022754D01*
X0245010Y0022559D01*
X0244916Y0022366D01*
X0244817Y0022175D01*
X0244713Y0021987D01*
X0244605Y0021802D01*
X0244492Y0021619D01*
X0244375Y0021439D01*
X0244254Y0021262D01*
X0244128Y0021088D01*
X0243998Y0020917D01*
X0243864Y0020749D01*
X0243726Y0020585D01*
X0243583Y0020424D01*
X0243437Y0020267D01*
X0243287Y0020113D01*
X0243133Y0019963D01*
X0242976Y0019817D01*
X0242815Y0019674D01*
X0242651Y0019536D01*
X0242483Y0019402D01*
X0242312Y0019272D01*
X0242138Y0019146D01*
X0241961Y0019025D01*
X0241781Y0018908D01*
X0241598Y0018795D01*
X0241413Y0018687D01*
X0241225Y0018583D01*
X0241034Y0018484D01*
X0240841Y0018390D01*
X0240646Y0018301D01*
X0240448Y0018216D01*
X0240249Y0018136D01*
X0240048Y0018061D01*
X0239845Y0017992D01*
X0239640Y0017927D01*
X0239434Y0017867D01*
X0239226Y0017812D01*
X0239017Y0017763D01*
X0238807Y0017718D01*
X0238596Y0017679D01*
X0238384Y0017645D01*
X0238171Y0017616D01*
X0237958Y0017592D01*
X0237744Y0017574D01*
X0237529Y0017561D01*
X0237315Y0017553D01*
X0237100Y0017550D01*
X0236885Y0017553D01*
X0236671Y0017561D01*
X0236456Y0017574D01*
X0236242Y0017592D01*
X0236029Y0017616D01*
X0235816Y0017645D01*
X0235604Y0017679D01*
X0235393Y0017718D01*
X0235183Y0017763D01*
X0234974Y0017812D01*
X0234766Y0017867D01*
X0234560Y0017927D01*
X0234355Y0017992D01*
X0234152Y0018061D01*
X0233951Y0018136D01*
X0233752Y0018216D01*
X0233554Y0018301D01*
X0233359Y0018390D01*
X0233166Y0018484D01*
X0232975Y0018583D01*
X0232787Y0018687D01*
X0232602Y0018795D01*
X0232419Y0018908D01*
X0232239Y0019025D01*
X0232062Y0019146D01*
X0231888Y0019272D01*
X0231717Y0019402D01*
X0231549Y0019536D01*
X0231385Y0019674D01*
X0231224Y0019817D01*
X0231067Y0019963D01*
X0230913Y0020113D01*
X0230763Y0020267D01*
X0230617Y0020424D01*
X0230474Y0020585D01*
X0230336Y0020749D01*
X0230202Y0020917D01*
X0230072Y0021088D01*
X0229946Y0021262D01*
X0229825Y0021439D01*
X0229708Y0021619D01*
X0229595Y0021802D01*
X0229487Y0021987D01*
X0229383Y0022175D01*
X0229284Y0022366D01*
X0229190Y0022559D01*
X0229101Y0022754D01*
X0229016Y0022952D01*
X0228936Y0023151D01*
X0228861Y0023352D01*
X0228792Y0023555D01*
X0228727Y0023760D01*
X0228667Y0023966D01*
X0228612Y0024174D01*
X0228563Y0024383D01*
X0228518Y0024593D01*
X0228479Y0024804D01*
X0228445Y0025016D01*
X0228416Y0025229D01*
X0228392Y0025442D01*
X0228374Y0025656D01*
X0228361Y0025871D01*
X0228353Y0026085D01*
X0228350Y0026300D01*
D11*
X0237100Y0026300D03*
X0022100Y0026300D03*
X0022100Y0276300D03*
X0237100Y0276300D03*
D12*
X0232069Y0225284D02*
X0232069Y0222516D01*
X0232069Y0225284D02*
X0234837Y0225284D01*
X0234837Y0222516D01*
X0232069Y0222516D01*
X0232069Y0224197D02*
X0234837Y0224197D01*
X0225163Y0225284D02*
X0225163Y0222516D01*
X0225163Y0225284D02*
X0227931Y0225284D01*
X0227931Y0222516D01*
X0225163Y0222516D01*
X0225163Y0224197D02*
X0227931Y0224197D01*
X0224863Y0215684D02*
X0224863Y0212916D01*
X0224863Y0215684D02*
X0227631Y0215684D01*
X0227631Y0212916D01*
X0224863Y0212916D01*
X0224863Y0214597D02*
X0227631Y0214597D01*
X0231769Y0215684D02*
X0231769Y0212916D01*
X0231769Y0215684D02*
X0234537Y0215684D01*
X0234537Y0212916D01*
X0231769Y0212916D01*
X0231769Y0214597D02*
X0234537Y0214597D01*
X0231769Y0205884D02*
X0231769Y0203116D01*
X0231769Y0205884D02*
X0234537Y0205884D01*
X0234537Y0203116D01*
X0231769Y0203116D01*
X0231769Y0204797D02*
X0234537Y0204797D01*
X0224863Y0205884D02*
X0224863Y0203116D01*
X0224863Y0205884D02*
X0227631Y0205884D01*
X0227631Y0203116D01*
X0224863Y0203116D01*
X0224863Y0204797D02*
X0227631Y0204797D01*
X0184537Y0043884D02*
X0184537Y0041116D01*
X0181769Y0041116D01*
X0181769Y0043884D01*
X0184537Y0043884D01*
X0184537Y0042797D02*
X0181769Y0042797D01*
X0177631Y0043884D02*
X0177631Y0041116D01*
X0174863Y0041116D01*
X0174863Y0043884D01*
X0177631Y0043884D01*
X0177631Y0042797D02*
X0174863Y0042797D01*
D13*
X0175957Y0051900D03*
X0183043Y0051900D03*
X0129143Y0122100D03*
X0122057Y0122100D03*
D14*
X0145600Y0274900D02*
X0145600Y0279700D01*
X0155600Y0279700D02*
X0155600Y0274900D01*
X0165600Y0274900D02*
X0165600Y0279700D01*
X0175600Y0279700D02*
X0175600Y0274900D01*
X0185600Y0274900D02*
X0185600Y0279700D01*
X0195600Y0279700D02*
X0195600Y0274900D01*
X0205600Y0274900D02*
X0205600Y0279700D01*
X0215600Y0279700D02*
X0215600Y0274900D01*
D15*
X0116930Y0108669D03*
X0116930Y0102764D03*
X0116930Y0096858D03*
X0116930Y0090953D03*
X0116930Y0085047D03*
X0116930Y0079142D03*
X0116930Y0073236D03*
X0116930Y0067331D03*
D16*
X0122835Y0063000D03*
X0128741Y0063000D03*
X0134646Y0063000D03*
X0140552Y0063000D03*
X0146457Y0063000D03*
X0152363Y0063000D03*
X0158269Y0063000D03*
X0164174Y0063000D03*
X0170080Y0063000D03*
X0175985Y0063000D03*
X0181891Y0063000D03*
X0187796Y0063000D03*
X0193702Y0063000D03*
X0193702Y0113000D03*
X0187796Y0113000D03*
X0181891Y0113000D03*
X0175985Y0113000D03*
X0170080Y0113000D03*
X0164174Y0113000D03*
X0158269Y0113000D03*
X0152363Y0113000D03*
X0146457Y0113000D03*
X0140552Y0113000D03*
X0134646Y0113000D03*
X0128741Y0113000D03*
X0122835Y0113000D03*
D17*
X0132685Y0163978D03*
X0132685Y0165946D03*
X0132685Y0167915D03*
X0132685Y0169883D03*
X0132685Y0171852D03*
X0132685Y0173820D03*
X0132685Y0175789D03*
X0132685Y0177757D03*
X0132685Y0179726D03*
X0132685Y0181694D03*
X0132685Y0183663D03*
X0132685Y0185631D03*
X0132685Y0187600D03*
X0132685Y0189569D03*
X0132685Y0191537D03*
X0132685Y0193506D03*
X0132685Y0195474D03*
X0132685Y0197443D03*
X0132685Y0199411D03*
X0132685Y0201380D03*
X0132685Y0203348D03*
X0132685Y0205317D03*
X0132685Y0207285D03*
X0132685Y0209254D03*
X0132685Y0211222D03*
X0193315Y0211222D03*
X0193315Y0209254D03*
X0193315Y0207285D03*
X0193315Y0205317D03*
X0193315Y0203348D03*
X0193315Y0201380D03*
X0193315Y0199411D03*
X0193315Y0197443D03*
X0193315Y0195474D03*
X0193315Y0193506D03*
X0193315Y0191537D03*
X0193315Y0189569D03*
X0193315Y0187600D03*
X0193315Y0185631D03*
X0193315Y0183663D03*
X0193315Y0181694D03*
X0193315Y0179726D03*
X0193315Y0177757D03*
X0193315Y0175789D03*
X0193315Y0173820D03*
X0193315Y0171852D03*
X0193315Y0169883D03*
X0193315Y0167915D03*
X0193315Y0165946D03*
X0193315Y0163978D03*
D18*
X0186622Y0157285D03*
X0184654Y0157285D03*
X0182685Y0157285D03*
X0180717Y0157285D03*
X0178748Y0157285D03*
X0176780Y0157285D03*
X0174811Y0157285D03*
X0172843Y0157285D03*
X0170874Y0157285D03*
X0168906Y0157285D03*
X0166937Y0157285D03*
X0164969Y0157285D03*
X0163000Y0157285D03*
X0161031Y0157285D03*
X0159063Y0157285D03*
X0157094Y0157285D03*
X0155126Y0157285D03*
X0153157Y0157285D03*
X0151189Y0157285D03*
X0149220Y0157285D03*
X0147252Y0157285D03*
X0145283Y0157285D03*
X0143315Y0157285D03*
X0141346Y0157285D03*
X0139378Y0157285D03*
X0139378Y0217915D03*
X0141346Y0217915D03*
X0143315Y0217915D03*
X0145283Y0217915D03*
X0147252Y0217915D03*
X0149220Y0217915D03*
X0151189Y0217915D03*
X0153157Y0217915D03*
X0155126Y0217915D03*
X0157094Y0217915D03*
X0159063Y0217915D03*
X0161031Y0217915D03*
X0163000Y0217915D03*
X0164969Y0217915D03*
X0166937Y0217915D03*
X0168906Y0217915D03*
X0170874Y0217915D03*
X0172843Y0217915D03*
X0174811Y0217915D03*
X0176780Y0217915D03*
X0178748Y0217915D03*
X0180717Y0217915D03*
X0182685Y0217915D03*
X0184654Y0217915D03*
X0186622Y0217915D03*
D19*
X0078500Y0193800D03*
X0055500Y0166300D03*
X0055500Y0156300D03*
D20*
X0159200Y0228954D03*
X0159200Y0235646D03*
X0175000Y0235646D03*
X0175000Y0228954D03*
D21*
X0169469Y0228443D03*
X0165531Y0228443D03*
X0165531Y0233757D03*
X0169469Y0233757D03*
D22*
X0165600Y0261257D03*
X0165600Y0268343D03*
X0175600Y0268443D03*
X0175600Y0261357D03*
X0155600Y0261057D03*
X0155600Y0268143D03*
X0145600Y0268043D03*
X0145600Y0260957D03*
X0213000Y0142443D03*
X0213000Y0135357D03*
D23*
X0202500Y0127300D03*
X0187500Y0127300D03*
X0187500Y0149300D03*
X0202500Y0149300D03*
D24*
X0081995Y0106400D03*
X0080025Y0106400D03*
X0078055Y0106400D03*
X0076085Y0106400D03*
X0074115Y0106400D03*
X0072145Y0106400D03*
X0070175Y0106400D03*
X0068205Y0106400D03*
X0068205Y0089200D03*
X0070175Y0089200D03*
X0072145Y0089200D03*
X0074115Y0089200D03*
X0076085Y0089200D03*
X0078055Y0089200D03*
X0080025Y0089200D03*
X0081995Y0089200D03*
D25*
X0075100Y0097800D03*
D26*
X0080560Y0120900D03*
X0088040Y0120900D03*
X0121560Y0129700D03*
X0129040Y0129700D03*
X0102040Y0184100D03*
X0094560Y0184100D03*
X0094560Y0200600D03*
X0102040Y0200600D03*
X0095040Y0069900D03*
X0087560Y0069900D03*
X0072140Y0070100D03*
X0064660Y0070100D03*
X0065160Y0054500D03*
X0072640Y0054500D03*
D27*
X0053300Y0067560D03*
X0053300Y0075040D03*
X0038600Y0097060D03*
X0038600Y0104540D03*
X0041200Y0130960D03*
X0041200Y0138440D03*
X0055800Y0138440D03*
X0055800Y0130960D03*
X0230900Y0181960D03*
X0230900Y0189440D03*
D28*
X0056800Y0106112D03*
X0056800Y0095088D03*
D29*
X0091900Y0099900D03*
D30*
X0092983Y0102892D03*
X0090817Y0102892D03*
D31*
X0071700Y0128588D03*
X0071700Y0139612D03*
D32*
X0108800Y0278100D03*
X0108800Y0283100D03*
X0113800Y0283100D03*
X0113800Y0278100D03*
X0118800Y0278100D03*
X0118800Y0283100D03*
X0123800Y0283100D03*
X0123800Y0278100D03*
X0128800Y0278100D03*
X0128800Y0283100D03*
D33*
X0210254Y0223600D03*
X0216946Y0223600D03*
X0216946Y0213900D03*
X0210254Y0213900D03*
X0210354Y0204600D03*
X0217046Y0204600D03*
D34*
X0082857Y0203204D02*
X0082857Y0200828D01*
X0074141Y0200828D01*
X0074141Y0203204D01*
X0082857Y0203204D01*
X0082857Y0185172D02*
X0082857Y0182796D01*
X0074141Y0182796D01*
X0074141Y0185172D01*
X0082857Y0185172D01*
D35*
X0063260Y0182984D02*
X0063260Y0203016D01*
X0063260Y0182984D02*
X0041376Y0182984D01*
X0041376Y0203016D01*
X0063260Y0203016D01*
X0063260Y0185579D02*
X0041376Y0185579D01*
X0041376Y0188174D02*
X0063260Y0188174D01*
X0063260Y0190769D02*
X0041376Y0190769D01*
X0041376Y0193364D02*
X0063260Y0193364D01*
X0063260Y0195959D02*
X0041376Y0195959D01*
X0041376Y0198554D02*
X0063260Y0198554D01*
X0063260Y0201149D02*
X0041376Y0201149D01*
D36*
X0098200Y0224189D03*
X0098200Y0247811D03*
D37*
X0052924Y0247811D03*
X0052924Y0224189D03*
D38*
X0218419Y0191500D02*
X0222181Y0191500D01*
X0222181Y0186500D02*
X0218419Y0186500D01*
X0218419Y0181500D02*
X0222181Y0181500D01*
D39*
X0079200Y0169549D03*
X0079200Y0150651D03*
D40*
X0061600Y0124200D03*
X0064800Y0112400D03*
X0050100Y0115500D03*
X0047400Y0106200D03*
X0038700Y0113600D03*
X0059100Y0088300D03*
X0067149Y0084200D03*
X0068500Y0079200D03*
X0060900Y0079300D03*
X0079700Y0069900D03*
X0086164Y0095600D03*
X0086800Y0106400D03*
X0108300Y0155500D03*
X0132700Y0148700D03*
X0157000Y0167800D03*
X0149800Y0183400D03*
X0138500Y0181400D03*
X0139100Y0187600D03*
X0126431Y0185631D03*
X0102800Y0193900D03*
X0146400Y0224500D03*
X0146300Y0229800D03*
X0151300Y0229800D03*
X0152900Y0236700D03*
X0150900Y0254800D03*
X0160800Y0255000D03*
X0171400Y0255000D03*
X0181600Y0255200D03*
X0184600Y0235300D03*
X0191400Y0232900D03*
X0196000Y0232500D03*
X0199700Y0229000D03*
X0185800Y0203600D03*
X0185900Y0199300D03*
X0174600Y0198400D03*
X0175249Y0192289D03*
X0175000Y0187100D03*
X0186600Y0186500D03*
X0205300Y0181500D03*
X0180600Y0166500D03*
X0174800Y0147300D03*
X0167000Y0147700D03*
X0166600Y0127300D03*
X0179300Y0121500D03*
X0190100Y0121300D03*
X0209300Y0128500D03*
X0234400Y0196500D03*
X0174100Y0208300D03*
X0169500Y0210400D03*
X0156300Y0205100D03*
X0133700Y0270600D03*
M02*
