%
M48
M72
T01C0.0138
T02C0.0200
T03C0.0236
T04C0.0320
T05C0.1750
%
T01
X6090Y7930
X6850Y7920
X6715Y8420
X5910Y8830
X4740Y10620
X5010Y11550
X3870Y11360
X6160Y12420
X6480Y11240
X8680Y10640
X8616Y9560
X7970Y6990
X13270Y14870
X10830Y15550
X12643Y18563
X13850Y18140
X13910Y18760
X14980Y18340
X15700Y16780
X17500Y18710
X17525Y19229
X17460Y19840
X17410Y20830
X16950Y21040
X15630Y20510
X14640Y22450
X14630Y22980
X15130Y22980
X15290Y23670
X15090Y25480
X16080Y25500
X17140Y25500
X18160Y25520
X18460Y23530
X19140Y23290
X19600Y23250
X19970Y22900
X18580Y20360
X18590Y19930
X18660Y18650
X20530Y18150
X18060Y16650
X17480Y14730
X16700Y14770
X16660Y12730
X17930Y12150
X19010Y12130
X20930Y12850
X23440Y19650
X13370Y27060
X10280Y19390
T02
X10880Y27810
X10880Y28310
X11380Y28310
X11380Y27810
X11880Y27810
X11880Y28310
X12380Y28310
X12380Y27810
X12880Y27810
X12880Y28310
T03
X7850Y19380
X5550Y16630
X5550Y15630
X22030Y18150
X22030Y18650
X22030Y19150
T04
X21560Y27730
X20560Y27730
X19560Y27730
X18560Y27730
X17560Y27730
X16560Y27730
X15560Y27730
X14560Y27730
T05
X2210Y2630
X23710Y2630
X23710Y27630
X2210Y27630
M30
