M48
;GenerationSoftware,Autodesk,EAGLE,9.2.2*%
;CreationDate,2019-03-11T18:36:13Z*%
FMAT,2
ICI,OFF
METRIC,TZ,000.000
T5C0.350
T4C0.508
T3C0.600
T2C0.813
T1C4.445
%
G90
M71
T1
X3810Y67310
X58420Y67310
X58420Y3810
X3810Y3810
T2
X35179Y67564
X37719Y67564
X40259Y67564
X42799Y67564
X45339Y67564
X47879Y67564
X50419Y67564
X52959Y67564
T3
X18136Y46355
X54153Y45771
X12294Y39370
X12294Y36830
X54153Y43231
X54153Y44501
T4
X27102Y67767
X28372Y67767
X29642Y67767
X25832Y67767
X27102Y69037
X28372Y69037
X29642Y69037
X30912Y69037
X25832Y69037
X30912Y67767
T5
X45085Y56896
X36525Y61849
X13665Y17272
X15596Y17247
X13208Y19558
X20244Y24155
X10236Y24105
X10922Y26467
X18440Y14884
X8026Y25984
X13843Y28677
X31902Y34900
X35382Y54153
X36627Y55499
X32156Y65862
X41250Y50571
X40513Y29464
X51359Y29769
X42545Y47523
X42596Y34544
X42710Y45971
X20082Y21412
X15252Y18517
X45593Y44501
X43739Y27991
X46482Y27940
X38075Y39751
X45415Y47752
X33376Y43205
X42418Y50038
X40615Y34646
X57734Y47041
X45390Y48844
X50343Y43231
X44069Y39421
X36246Y43713
X37033Y57252
X37897Y49225
X30310Y44280
X14656Y25679
X25705Y36627
X35357Y55499
X33528Y44780
X42647Y44653
X24308Y46380
X48920Y55296
X44323Y61951
X47981Y56185
X41732Y61900
X46812Y56286
X39040Y61900
M30