G75*
%MOIN*%
%OFA0B0*%
%FSLAX25Y25*%
%IPPOS*%
%LPD*%
%AMOC8*
5,1,8,0,0,1.08239X$1,22.5*
%
%ADD10C,0.00000*%
%ADD11C,0.00500*%
%ADD12C,0.00800*%
%ADD13C,0.00400*%
D10*
X0007100Y0011300D02*
X0007100Y0291300D01*
X0252100Y0291300D01*
X0252100Y0011300D01*
X0007100Y0011300D01*
X0013350Y0026300D02*
X0013353Y0026515D01*
X0013361Y0026729D01*
X0013374Y0026944D01*
X0013392Y0027158D01*
X0013416Y0027371D01*
X0013445Y0027584D01*
X0013479Y0027796D01*
X0013518Y0028007D01*
X0013563Y0028217D01*
X0013612Y0028426D01*
X0013667Y0028634D01*
X0013727Y0028840D01*
X0013792Y0029045D01*
X0013861Y0029248D01*
X0013936Y0029449D01*
X0014016Y0029648D01*
X0014101Y0029846D01*
X0014190Y0030041D01*
X0014284Y0030234D01*
X0014383Y0030425D01*
X0014487Y0030613D01*
X0014595Y0030798D01*
X0014708Y0030981D01*
X0014825Y0031161D01*
X0014946Y0031338D01*
X0015072Y0031512D01*
X0015202Y0031683D01*
X0015336Y0031851D01*
X0015474Y0032015D01*
X0015617Y0032176D01*
X0015763Y0032333D01*
X0015913Y0032487D01*
X0016067Y0032637D01*
X0016224Y0032783D01*
X0016385Y0032926D01*
X0016549Y0033064D01*
X0016717Y0033198D01*
X0016888Y0033328D01*
X0017062Y0033454D01*
X0017239Y0033575D01*
X0017419Y0033692D01*
X0017602Y0033805D01*
X0017787Y0033913D01*
X0017975Y0034017D01*
X0018166Y0034116D01*
X0018359Y0034210D01*
X0018554Y0034299D01*
X0018752Y0034384D01*
X0018951Y0034464D01*
X0019152Y0034539D01*
X0019355Y0034608D01*
X0019560Y0034673D01*
X0019766Y0034733D01*
X0019974Y0034788D01*
X0020183Y0034837D01*
X0020393Y0034882D01*
X0020604Y0034921D01*
X0020816Y0034955D01*
X0021029Y0034984D01*
X0021242Y0035008D01*
X0021456Y0035026D01*
X0021671Y0035039D01*
X0021885Y0035047D01*
X0022100Y0035050D01*
X0022315Y0035047D01*
X0022529Y0035039D01*
X0022744Y0035026D01*
X0022958Y0035008D01*
X0023171Y0034984D01*
X0023384Y0034955D01*
X0023596Y0034921D01*
X0023807Y0034882D01*
X0024017Y0034837D01*
X0024226Y0034788D01*
X0024434Y0034733D01*
X0024640Y0034673D01*
X0024845Y0034608D01*
X0025048Y0034539D01*
X0025249Y0034464D01*
X0025448Y0034384D01*
X0025646Y0034299D01*
X0025841Y0034210D01*
X0026034Y0034116D01*
X0026225Y0034017D01*
X0026413Y0033913D01*
X0026598Y0033805D01*
X0026781Y0033692D01*
X0026961Y0033575D01*
X0027138Y0033454D01*
X0027312Y0033328D01*
X0027483Y0033198D01*
X0027651Y0033064D01*
X0027815Y0032926D01*
X0027976Y0032783D01*
X0028133Y0032637D01*
X0028287Y0032487D01*
X0028437Y0032333D01*
X0028583Y0032176D01*
X0028726Y0032015D01*
X0028864Y0031851D01*
X0028998Y0031683D01*
X0029128Y0031512D01*
X0029254Y0031338D01*
X0029375Y0031161D01*
X0029492Y0030981D01*
X0029605Y0030798D01*
X0029713Y0030613D01*
X0029817Y0030425D01*
X0029916Y0030234D01*
X0030010Y0030041D01*
X0030099Y0029846D01*
X0030184Y0029648D01*
X0030264Y0029449D01*
X0030339Y0029248D01*
X0030408Y0029045D01*
X0030473Y0028840D01*
X0030533Y0028634D01*
X0030588Y0028426D01*
X0030637Y0028217D01*
X0030682Y0028007D01*
X0030721Y0027796D01*
X0030755Y0027584D01*
X0030784Y0027371D01*
X0030808Y0027158D01*
X0030826Y0026944D01*
X0030839Y0026729D01*
X0030847Y0026515D01*
X0030850Y0026300D01*
X0030847Y0026085D01*
X0030839Y0025871D01*
X0030826Y0025656D01*
X0030808Y0025442D01*
X0030784Y0025229D01*
X0030755Y0025016D01*
X0030721Y0024804D01*
X0030682Y0024593D01*
X0030637Y0024383D01*
X0030588Y0024174D01*
X0030533Y0023966D01*
X0030473Y0023760D01*
X0030408Y0023555D01*
X0030339Y0023352D01*
X0030264Y0023151D01*
X0030184Y0022952D01*
X0030099Y0022754D01*
X0030010Y0022559D01*
X0029916Y0022366D01*
X0029817Y0022175D01*
X0029713Y0021987D01*
X0029605Y0021802D01*
X0029492Y0021619D01*
X0029375Y0021439D01*
X0029254Y0021262D01*
X0029128Y0021088D01*
X0028998Y0020917D01*
X0028864Y0020749D01*
X0028726Y0020585D01*
X0028583Y0020424D01*
X0028437Y0020267D01*
X0028287Y0020113D01*
X0028133Y0019963D01*
X0027976Y0019817D01*
X0027815Y0019674D01*
X0027651Y0019536D01*
X0027483Y0019402D01*
X0027312Y0019272D01*
X0027138Y0019146D01*
X0026961Y0019025D01*
X0026781Y0018908D01*
X0026598Y0018795D01*
X0026413Y0018687D01*
X0026225Y0018583D01*
X0026034Y0018484D01*
X0025841Y0018390D01*
X0025646Y0018301D01*
X0025448Y0018216D01*
X0025249Y0018136D01*
X0025048Y0018061D01*
X0024845Y0017992D01*
X0024640Y0017927D01*
X0024434Y0017867D01*
X0024226Y0017812D01*
X0024017Y0017763D01*
X0023807Y0017718D01*
X0023596Y0017679D01*
X0023384Y0017645D01*
X0023171Y0017616D01*
X0022958Y0017592D01*
X0022744Y0017574D01*
X0022529Y0017561D01*
X0022315Y0017553D01*
X0022100Y0017550D01*
X0021885Y0017553D01*
X0021671Y0017561D01*
X0021456Y0017574D01*
X0021242Y0017592D01*
X0021029Y0017616D01*
X0020816Y0017645D01*
X0020604Y0017679D01*
X0020393Y0017718D01*
X0020183Y0017763D01*
X0019974Y0017812D01*
X0019766Y0017867D01*
X0019560Y0017927D01*
X0019355Y0017992D01*
X0019152Y0018061D01*
X0018951Y0018136D01*
X0018752Y0018216D01*
X0018554Y0018301D01*
X0018359Y0018390D01*
X0018166Y0018484D01*
X0017975Y0018583D01*
X0017787Y0018687D01*
X0017602Y0018795D01*
X0017419Y0018908D01*
X0017239Y0019025D01*
X0017062Y0019146D01*
X0016888Y0019272D01*
X0016717Y0019402D01*
X0016549Y0019536D01*
X0016385Y0019674D01*
X0016224Y0019817D01*
X0016067Y0019963D01*
X0015913Y0020113D01*
X0015763Y0020267D01*
X0015617Y0020424D01*
X0015474Y0020585D01*
X0015336Y0020749D01*
X0015202Y0020917D01*
X0015072Y0021088D01*
X0014946Y0021262D01*
X0014825Y0021439D01*
X0014708Y0021619D01*
X0014595Y0021802D01*
X0014487Y0021987D01*
X0014383Y0022175D01*
X0014284Y0022366D01*
X0014190Y0022559D01*
X0014101Y0022754D01*
X0014016Y0022952D01*
X0013936Y0023151D01*
X0013861Y0023352D01*
X0013792Y0023555D01*
X0013727Y0023760D01*
X0013667Y0023966D01*
X0013612Y0024174D01*
X0013563Y0024383D01*
X0013518Y0024593D01*
X0013479Y0024804D01*
X0013445Y0025016D01*
X0013416Y0025229D01*
X0013392Y0025442D01*
X0013374Y0025656D01*
X0013361Y0025871D01*
X0013353Y0026085D01*
X0013350Y0026300D01*
X0013350Y0276300D02*
X0013353Y0276515D01*
X0013361Y0276729D01*
X0013374Y0276944D01*
X0013392Y0277158D01*
X0013416Y0277371D01*
X0013445Y0277584D01*
X0013479Y0277796D01*
X0013518Y0278007D01*
X0013563Y0278217D01*
X0013612Y0278426D01*
X0013667Y0278634D01*
X0013727Y0278840D01*
X0013792Y0279045D01*
X0013861Y0279248D01*
X0013936Y0279449D01*
X0014016Y0279648D01*
X0014101Y0279846D01*
X0014190Y0280041D01*
X0014284Y0280234D01*
X0014383Y0280425D01*
X0014487Y0280613D01*
X0014595Y0280798D01*
X0014708Y0280981D01*
X0014825Y0281161D01*
X0014946Y0281338D01*
X0015072Y0281512D01*
X0015202Y0281683D01*
X0015336Y0281851D01*
X0015474Y0282015D01*
X0015617Y0282176D01*
X0015763Y0282333D01*
X0015913Y0282487D01*
X0016067Y0282637D01*
X0016224Y0282783D01*
X0016385Y0282926D01*
X0016549Y0283064D01*
X0016717Y0283198D01*
X0016888Y0283328D01*
X0017062Y0283454D01*
X0017239Y0283575D01*
X0017419Y0283692D01*
X0017602Y0283805D01*
X0017787Y0283913D01*
X0017975Y0284017D01*
X0018166Y0284116D01*
X0018359Y0284210D01*
X0018554Y0284299D01*
X0018752Y0284384D01*
X0018951Y0284464D01*
X0019152Y0284539D01*
X0019355Y0284608D01*
X0019560Y0284673D01*
X0019766Y0284733D01*
X0019974Y0284788D01*
X0020183Y0284837D01*
X0020393Y0284882D01*
X0020604Y0284921D01*
X0020816Y0284955D01*
X0021029Y0284984D01*
X0021242Y0285008D01*
X0021456Y0285026D01*
X0021671Y0285039D01*
X0021885Y0285047D01*
X0022100Y0285050D01*
X0022315Y0285047D01*
X0022529Y0285039D01*
X0022744Y0285026D01*
X0022958Y0285008D01*
X0023171Y0284984D01*
X0023384Y0284955D01*
X0023596Y0284921D01*
X0023807Y0284882D01*
X0024017Y0284837D01*
X0024226Y0284788D01*
X0024434Y0284733D01*
X0024640Y0284673D01*
X0024845Y0284608D01*
X0025048Y0284539D01*
X0025249Y0284464D01*
X0025448Y0284384D01*
X0025646Y0284299D01*
X0025841Y0284210D01*
X0026034Y0284116D01*
X0026225Y0284017D01*
X0026413Y0283913D01*
X0026598Y0283805D01*
X0026781Y0283692D01*
X0026961Y0283575D01*
X0027138Y0283454D01*
X0027312Y0283328D01*
X0027483Y0283198D01*
X0027651Y0283064D01*
X0027815Y0282926D01*
X0027976Y0282783D01*
X0028133Y0282637D01*
X0028287Y0282487D01*
X0028437Y0282333D01*
X0028583Y0282176D01*
X0028726Y0282015D01*
X0028864Y0281851D01*
X0028998Y0281683D01*
X0029128Y0281512D01*
X0029254Y0281338D01*
X0029375Y0281161D01*
X0029492Y0280981D01*
X0029605Y0280798D01*
X0029713Y0280613D01*
X0029817Y0280425D01*
X0029916Y0280234D01*
X0030010Y0280041D01*
X0030099Y0279846D01*
X0030184Y0279648D01*
X0030264Y0279449D01*
X0030339Y0279248D01*
X0030408Y0279045D01*
X0030473Y0278840D01*
X0030533Y0278634D01*
X0030588Y0278426D01*
X0030637Y0278217D01*
X0030682Y0278007D01*
X0030721Y0277796D01*
X0030755Y0277584D01*
X0030784Y0277371D01*
X0030808Y0277158D01*
X0030826Y0276944D01*
X0030839Y0276729D01*
X0030847Y0276515D01*
X0030850Y0276300D01*
X0030847Y0276085D01*
X0030839Y0275871D01*
X0030826Y0275656D01*
X0030808Y0275442D01*
X0030784Y0275229D01*
X0030755Y0275016D01*
X0030721Y0274804D01*
X0030682Y0274593D01*
X0030637Y0274383D01*
X0030588Y0274174D01*
X0030533Y0273966D01*
X0030473Y0273760D01*
X0030408Y0273555D01*
X0030339Y0273352D01*
X0030264Y0273151D01*
X0030184Y0272952D01*
X0030099Y0272754D01*
X0030010Y0272559D01*
X0029916Y0272366D01*
X0029817Y0272175D01*
X0029713Y0271987D01*
X0029605Y0271802D01*
X0029492Y0271619D01*
X0029375Y0271439D01*
X0029254Y0271262D01*
X0029128Y0271088D01*
X0028998Y0270917D01*
X0028864Y0270749D01*
X0028726Y0270585D01*
X0028583Y0270424D01*
X0028437Y0270267D01*
X0028287Y0270113D01*
X0028133Y0269963D01*
X0027976Y0269817D01*
X0027815Y0269674D01*
X0027651Y0269536D01*
X0027483Y0269402D01*
X0027312Y0269272D01*
X0027138Y0269146D01*
X0026961Y0269025D01*
X0026781Y0268908D01*
X0026598Y0268795D01*
X0026413Y0268687D01*
X0026225Y0268583D01*
X0026034Y0268484D01*
X0025841Y0268390D01*
X0025646Y0268301D01*
X0025448Y0268216D01*
X0025249Y0268136D01*
X0025048Y0268061D01*
X0024845Y0267992D01*
X0024640Y0267927D01*
X0024434Y0267867D01*
X0024226Y0267812D01*
X0024017Y0267763D01*
X0023807Y0267718D01*
X0023596Y0267679D01*
X0023384Y0267645D01*
X0023171Y0267616D01*
X0022958Y0267592D01*
X0022744Y0267574D01*
X0022529Y0267561D01*
X0022315Y0267553D01*
X0022100Y0267550D01*
X0021885Y0267553D01*
X0021671Y0267561D01*
X0021456Y0267574D01*
X0021242Y0267592D01*
X0021029Y0267616D01*
X0020816Y0267645D01*
X0020604Y0267679D01*
X0020393Y0267718D01*
X0020183Y0267763D01*
X0019974Y0267812D01*
X0019766Y0267867D01*
X0019560Y0267927D01*
X0019355Y0267992D01*
X0019152Y0268061D01*
X0018951Y0268136D01*
X0018752Y0268216D01*
X0018554Y0268301D01*
X0018359Y0268390D01*
X0018166Y0268484D01*
X0017975Y0268583D01*
X0017787Y0268687D01*
X0017602Y0268795D01*
X0017419Y0268908D01*
X0017239Y0269025D01*
X0017062Y0269146D01*
X0016888Y0269272D01*
X0016717Y0269402D01*
X0016549Y0269536D01*
X0016385Y0269674D01*
X0016224Y0269817D01*
X0016067Y0269963D01*
X0015913Y0270113D01*
X0015763Y0270267D01*
X0015617Y0270424D01*
X0015474Y0270585D01*
X0015336Y0270749D01*
X0015202Y0270917D01*
X0015072Y0271088D01*
X0014946Y0271262D01*
X0014825Y0271439D01*
X0014708Y0271619D01*
X0014595Y0271802D01*
X0014487Y0271987D01*
X0014383Y0272175D01*
X0014284Y0272366D01*
X0014190Y0272559D01*
X0014101Y0272754D01*
X0014016Y0272952D01*
X0013936Y0273151D01*
X0013861Y0273352D01*
X0013792Y0273555D01*
X0013727Y0273760D01*
X0013667Y0273966D01*
X0013612Y0274174D01*
X0013563Y0274383D01*
X0013518Y0274593D01*
X0013479Y0274804D01*
X0013445Y0275016D01*
X0013416Y0275229D01*
X0013392Y0275442D01*
X0013374Y0275656D01*
X0013361Y0275871D01*
X0013353Y0276085D01*
X0013350Y0276300D01*
X0228350Y0276300D02*
X0228353Y0276515D01*
X0228361Y0276729D01*
X0228374Y0276944D01*
X0228392Y0277158D01*
X0228416Y0277371D01*
X0228445Y0277584D01*
X0228479Y0277796D01*
X0228518Y0278007D01*
X0228563Y0278217D01*
X0228612Y0278426D01*
X0228667Y0278634D01*
X0228727Y0278840D01*
X0228792Y0279045D01*
X0228861Y0279248D01*
X0228936Y0279449D01*
X0229016Y0279648D01*
X0229101Y0279846D01*
X0229190Y0280041D01*
X0229284Y0280234D01*
X0229383Y0280425D01*
X0229487Y0280613D01*
X0229595Y0280798D01*
X0229708Y0280981D01*
X0229825Y0281161D01*
X0229946Y0281338D01*
X0230072Y0281512D01*
X0230202Y0281683D01*
X0230336Y0281851D01*
X0230474Y0282015D01*
X0230617Y0282176D01*
X0230763Y0282333D01*
X0230913Y0282487D01*
X0231067Y0282637D01*
X0231224Y0282783D01*
X0231385Y0282926D01*
X0231549Y0283064D01*
X0231717Y0283198D01*
X0231888Y0283328D01*
X0232062Y0283454D01*
X0232239Y0283575D01*
X0232419Y0283692D01*
X0232602Y0283805D01*
X0232787Y0283913D01*
X0232975Y0284017D01*
X0233166Y0284116D01*
X0233359Y0284210D01*
X0233554Y0284299D01*
X0233752Y0284384D01*
X0233951Y0284464D01*
X0234152Y0284539D01*
X0234355Y0284608D01*
X0234560Y0284673D01*
X0234766Y0284733D01*
X0234974Y0284788D01*
X0235183Y0284837D01*
X0235393Y0284882D01*
X0235604Y0284921D01*
X0235816Y0284955D01*
X0236029Y0284984D01*
X0236242Y0285008D01*
X0236456Y0285026D01*
X0236671Y0285039D01*
X0236885Y0285047D01*
X0237100Y0285050D01*
X0237315Y0285047D01*
X0237529Y0285039D01*
X0237744Y0285026D01*
X0237958Y0285008D01*
X0238171Y0284984D01*
X0238384Y0284955D01*
X0238596Y0284921D01*
X0238807Y0284882D01*
X0239017Y0284837D01*
X0239226Y0284788D01*
X0239434Y0284733D01*
X0239640Y0284673D01*
X0239845Y0284608D01*
X0240048Y0284539D01*
X0240249Y0284464D01*
X0240448Y0284384D01*
X0240646Y0284299D01*
X0240841Y0284210D01*
X0241034Y0284116D01*
X0241225Y0284017D01*
X0241413Y0283913D01*
X0241598Y0283805D01*
X0241781Y0283692D01*
X0241961Y0283575D01*
X0242138Y0283454D01*
X0242312Y0283328D01*
X0242483Y0283198D01*
X0242651Y0283064D01*
X0242815Y0282926D01*
X0242976Y0282783D01*
X0243133Y0282637D01*
X0243287Y0282487D01*
X0243437Y0282333D01*
X0243583Y0282176D01*
X0243726Y0282015D01*
X0243864Y0281851D01*
X0243998Y0281683D01*
X0244128Y0281512D01*
X0244254Y0281338D01*
X0244375Y0281161D01*
X0244492Y0280981D01*
X0244605Y0280798D01*
X0244713Y0280613D01*
X0244817Y0280425D01*
X0244916Y0280234D01*
X0245010Y0280041D01*
X0245099Y0279846D01*
X0245184Y0279648D01*
X0245264Y0279449D01*
X0245339Y0279248D01*
X0245408Y0279045D01*
X0245473Y0278840D01*
X0245533Y0278634D01*
X0245588Y0278426D01*
X0245637Y0278217D01*
X0245682Y0278007D01*
X0245721Y0277796D01*
X0245755Y0277584D01*
X0245784Y0277371D01*
X0245808Y0277158D01*
X0245826Y0276944D01*
X0245839Y0276729D01*
X0245847Y0276515D01*
X0245850Y0276300D01*
X0245847Y0276085D01*
X0245839Y0275871D01*
X0245826Y0275656D01*
X0245808Y0275442D01*
X0245784Y0275229D01*
X0245755Y0275016D01*
X0245721Y0274804D01*
X0245682Y0274593D01*
X0245637Y0274383D01*
X0245588Y0274174D01*
X0245533Y0273966D01*
X0245473Y0273760D01*
X0245408Y0273555D01*
X0245339Y0273352D01*
X0245264Y0273151D01*
X0245184Y0272952D01*
X0245099Y0272754D01*
X0245010Y0272559D01*
X0244916Y0272366D01*
X0244817Y0272175D01*
X0244713Y0271987D01*
X0244605Y0271802D01*
X0244492Y0271619D01*
X0244375Y0271439D01*
X0244254Y0271262D01*
X0244128Y0271088D01*
X0243998Y0270917D01*
X0243864Y0270749D01*
X0243726Y0270585D01*
X0243583Y0270424D01*
X0243437Y0270267D01*
X0243287Y0270113D01*
X0243133Y0269963D01*
X0242976Y0269817D01*
X0242815Y0269674D01*
X0242651Y0269536D01*
X0242483Y0269402D01*
X0242312Y0269272D01*
X0242138Y0269146D01*
X0241961Y0269025D01*
X0241781Y0268908D01*
X0241598Y0268795D01*
X0241413Y0268687D01*
X0241225Y0268583D01*
X0241034Y0268484D01*
X0240841Y0268390D01*
X0240646Y0268301D01*
X0240448Y0268216D01*
X0240249Y0268136D01*
X0240048Y0268061D01*
X0239845Y0267992D01*
X0239640Y0267927D01*
X0239434Y0267867D01*
X0239226Y0267812D01*
X0239017Y0267763D01*
X0238807Y0267718D01*
X0238596Y0267679D01*
X0238384Y0267645D01*
X0238171Y0267616D01*
X0237958Y0267592D01*
X0237744Y0267574D01*
X0237529Y0267561D01*
X0237315Y0267553D01*
X0237100Y0267550D01*
X0236885Y0267553D01*
X0236671Y0267561D01*
X0236456Y0267574D01*
X0236242Y0267592D01*
X0236029Y0267616D01*
X0235816Y0267645D01*
X0235604Y0267679D01*
X0235393Y0267718D01*
X0235183Y0267763D01*
X0234974Y0267812D01*
X0234766Y0267867D01*
X0234560Y0267927D01*
X0234355Y0267992D01*
X0234152Y0268061D01*
X0233951Y0268136D01*
X0233752Y0268216D01*
X0233554Y0268301D01*
X0233359Y0268390D01*
X0233166Y0268484D01*
X0232975Y0268583D01*
X0232787Y0268687D01*
X0232602Y0268795D01*
X0232419Y0268908D01*
X0232239Y0269025D01*
X0232062Y0269146D01*
X0231888Y0269272D01*
X0231717Y0269402D01*
X0231549Y0269536D01*
X0231385Y0269674D01*
X0231224Y0269817D01*
X0231067Y0269963D01*
X0230913Y0270113D01*
X0230763Y0270267D01*
X0230617Y0270424D01*
X0230474Y0270585D01*
X0230336Y0270749D01*
X0230202Y0270917D01*
X0230072Y0271088D01*
X0229946Y0271262D01*
X0229825Y0271439D01*
X0229708Y0271619D01*
X0229595Y0271802D01*
X0229487Y0271987D01*
X0229383Y0272175D01*
X0229284Y0272366D01*
X0229190Y0272559D01*
X0229101Y0272754D01*
X0229016Y0272952D01*
X0228936Y0273151D01*
X0228861Y0273352D01*
X0228792Y0273555D01*
X0228727Y0273760D01*
X0228667Y0273966D01*
X0228612Y0274174D01*
X0228563Y0274383D01*
X0228518Y0274593D01*
X0228479Y0274804D01*
X0228445Y0275016D01*
X0228416Y0275229D01*
X0228392Y0275442D01*
X0228374Y0275656D01*
X0228361Y0275871D01*
X0228353Y0276085D01*
X0228350Y0276300D01*
X0228350Y0026300D02*
X0228353Y0026515D01*
X0228361Y0026729D01*
X0228374Y0026944D01*
X0228392Y0027158D01*
X0228416Y0027371D01*
X0228445Y0027584D01*
X0228479Y0027796D01*
X0228518Y0028007D01*
X0228563Y0028217D01*
X0228612Y0028426D01*
X0228667Y0028634D01*
X0228727Y0028840D01*
X0228792Y0029045D01*
X0228861Y0029248D01*
X0228936Y0029449D01*
X0229016Y0029648D01*
X0229101Y0029846D01*
X0229190Y0030041D01*
X0229284Y0030234D01*
X0229383Y0030425D01*
X0229487Y0030613D01*
X0229595Y0030798D01*
X0229708Y0030981D01*
X0229825Y0031161D01*
X0229946Y0031338D01*
X0230072Y0031512D01*
X0230202Y0031683D01*
X0230336Y0031851D01*
X0230474Y0032015D01*
X0230617Y0032176D01*
X0230763Y0032333D01*
X0230913Y0032487D01*
X0231067Y0032637D01*
X0231224Y0032783D01*
X0231385Y0032926D01*
X0231549Y0033064D01*
X0231717Y0033198D01*
X0231888Y0033328D01*
X0232062Y0033454D01*
X0232239Y0033575D01*
X0232419Y0033692D01*
X0232602Y0033805D01*
X0232787Y0033913D01*
X0232975Y0034017D01*
X0233166Y0034116D01*
X0233359Y0034210D01*
X0233554Y0034299D01*
X0233752Y0034384D01*
X0233951Y0034464D01*
X0234152Y0034539D01*
X0234355Y0034608D01*
X0234560Y0034673D01*
X0234766Y0034733D01*
X0234974Y0034788D01*
X0235183Y0034837D01*
X0235393Y0034882D01*
X0235604Y0034921D01*
X0235816Y0034955D01*
X0236029Y0034984D01*
X0236242Y0035008D01*
X0236456Y0035026D01*
X0236671Y0035039D01*
X0236885Y0035047D01*
X0237100Y0035050D01*
X0237315Y0035047D01*
X0237529Y0035039D01*
X0237744Y0035026D01*
X0237958Y0035008D01*
X0238171Y0034984D01*
X0238384Y0034955D01*
X0238596Y0034921D01*
X0238807Y0034882D01*
X0239017Y0034837D01*
X0239226Y0034788D01*
X0239434Y0034733D01*
X0239640Y0034673D01*
X0239845Y0034608D01*
X0240048Y0034539D01*
X0240249Y0034464D01*
X0240448Y0034384D01*
X0240646Y0034299D01*
X0240841Y0034210D01*
X0241034Y0034116D01*
X0241225Y0034017D01*
X0241413Y0033913D01*
X0241598Y0033805D01*
X0241781Y0033692D01*
X0241961Y0033575D01*
X0242138Y0033454D01*
X0242312Y0033328D01*
X0242483Y0033198D01*
X0242651Y0033064D01*
X0242815Y0032926D01*
X0242976Y0032783D01*
X0243133Y0032637D01*
X0243287Y0032487D01*
X0243437Y0032333D01*
X0243583Y0032176D01*
X0243726Y0032015D01*
X0243864Y0031851D01*
X0243998Y0031683D01*
X0244128Y0031512D01*
X0244254Y0031338D01*
X0244375Y0031161D01*
X0244492Y0030981D01*
X0244605Y0030798D01*
X0244713Y0030613D01*
X0244817Y0030425D01*
X0244916Y0030234D01*
X0245010Y0030041D01*
X0245099Y0029846D01*
X0245184Y0029648D01*
X0245264Y0029449D01*
X0245339Y0029248D01*
X0245408Y0029045D01*
X0245473Y0028840D01*
X0245533Y0028634D01*
X0245588Y0028426D01*
X0245637Y0028217D01*
X0245682Y0028007D01*
X0245721Y0027796D01*
X0245755Y0027584D01*
X0245784Y0027371D01*
X0245808Y0027158D01*
X0245826Y0026944D01*
X0245839Y0026729D01*
X0245847Y0026515D01*
X0245850Y0026300D01*
X0245847Y0026085D01*
X0245839Y0025871D01*
X0245826Y0025656D01*
X0245808Y0025442D01*
X0245784Y0025229D01*
X0245755Y0025016D01*
X0245721Y0024804D01*
X0245682Y0024593D01*
X0245637Y0024383D01*
X0245588Y0024174D01*
X0245533Y0023966D01*
X0245473Y0023760D01*
X0245408Y0023555D01*
X0245339Y0023352D01*
X0245264Y0023151D01*
X0245184Y0022952D01*
X0245099Y0022754D01*
X0245010Y0022559D01*
X0244916Y0022366D01*
X0244817Y0022175D01*
X0244713Y0021987D01*
X0244605Y0021802D01*
X0244492Y0021619D01*
X0244375Y0021439D01*
X0244254Y0021262D01*
X0244128Y0021088D01*
X0243998Y0020917D01*
X0243864Y0020749D01*
X0243726Y0020585D01*
X0243583Y0020424D01*
X0243437Y0020267D01*
X0243287Y0020113D01*
X0243133Y0019963D01*
X0242976Y0019817D01*
X0242815Y0019674D01*
X0242651Y0019536D01*
X0242483Y0019402D01*
X0242312Y0019272D01*
X0242138Y0019146D01*
X0241961Y0019025D01*
X0241781Y0018908D01*
X0241598Y0018795D01*
X0241413Y0018687D01*
X0241225Y0018583D01*
X0241034Y0018484D01*
X0240841Y0018390D01*
X0240646Y0018301D01*
X0240448Y0018216D01*
X0240249Y0018136D01*
X0240048Y0018061D01*
X0239845Y0017992D01*
X0239640Y0017927D01*
X0239434Y0017867D01*
X0239226Y0017812D01*
X0239017Y0017763D01*
X0238807Y0017718D01*
X0238596Y0017679D01*
X0238384Y0017645D01*
X0238171Y0017616D01*
X0237958Y0017592D01*
X0237744Y0017574D01*
X0237529Y0017561D01*
X0237315Y0017553D01*
X0237100Y0017550D01*
X0236885Y0017553D01*
X0236671Y0017561D01*
X0236456Y0017574D01*
X0236242Y0017592D01*
X0236029Y0017616D01*
X0235816Y0017645D01*
X0235604Y0017679D01*
X0235393Y0017718D01*
X0235183Y0017763D01*
X0234974Y0017812D01*
X0234766Y0017867D01*
X0234560Y0017927D01*
X0234355Y0017992D01*
X0234152Y0018061D01*
X0233951Y0018136D01*
X0233752Y0018216D01*
X0233554Y0018301D01*
X0233359Y0018390D01*
X0233166Y0018484D01*
X0232975Y0018583D01*
X0232787Y0018687D01*
X0232602Y0018795D01*
X0232419Y0018908D01*
X0232239Y0019025D01*
X0232062Y0019146D01*
X0231888Y0019272D01*
X0231717Y0019402D01*
X0231549Y0019536D01*
X0231385Y0019674D01*
X0231224Y0019817D01*
X0231067Y0019963D01*
X0230913Y0020113D01*
X0230763Y0020267D01*
X0230617Y0020424D01*
X0230474Y0020585D01*
X0230336Y0020749D01*
X0230202Y0020917D01*
X0230072Y0021088D01*
X0229946Y0021262D01*
X0229825Y0021439D01*
X0229708Y0021619D01*
X0229595Y0021802D01*
X0229487Y0021987D01*
X0229383Y0022175D01*
X0229284Y0022366D01*
X0229190Y0022559D01*
X0229101Y0022754D01*
X0229016Y0022952D01*
X0228936Y0023151D01*
X0228861Y0023352D01*
X0228792Y0023555D01*
X0228727Y0023760D01*
X0228667Y0023966D01*
X0228612Y0024174D01*
X0228563Y0024383D01*
X0228518Y0024593D01*
X0228479Y0024804D01*
X0228445Y0025016D01*
X0228416Y0025229D01*
X0228392Y0025442D01*
X0228374Y0025656D01*
X0228361Y0025871D01*
X0228353Y0026085D01*
X0228350Y0026300D01*
D11*
X0162028Y0166567D02*
X0160972Y0166567D01*
X0160933Y0166569D01*
X0160894Y0166574D01*
X0160857Y0166583D01*
X0160820Y0166595D01*
X0160784Y0166611D01*
X0160750Y0166630D01*
X0160718Y0166652D01*
X0160688Y0166677D01*
X0160660Y0166705D01*
X0160635Y0166735D01*
X0160613Y0166767D01*
X0160594Y0166801D01*
X0160578Y0166837D01*
X0160566Y0166874D01*
X0160557Y0166911D01*
X0160552Y0166950D01*
X0160550Y0166989D01*
X0160550Y0167411D01*
X0160550Y0168378D02*
X0160550Y0168906D01*
X0160552Y0168951D01*
X0160558Y0168995D01*
X0160567Y0169039D01*
X0160580Y0169082D01*
X0160597Y0169123D01*
X0160617Y0169164D01*
X0160641Y0169202D01*
X0160667Y0169238D01*
X0160697Y0169271D01*
X0160729Y0169302D01*
X0160764Y0169331D01*
X0160801Y0169356D01*
X0160840Y0169377D01*
X0160881Y0169396D01*
X0160923Y0169411D01*
X0160967Y0169422D01*
X0161011Y0169430D01*
X0161056Y0169434D01*
X0161100Y0169434D01*
X0161145Y0169430D01*
X0161189Y0169422D01*
X0161233Y0169411D01*
X0161275Y0169396D01*
X0161316Y0169377D01*
X0161355Y0169356D01*
X0161392Y0169331D01*
X0161427Y0169302D01*
X0161459Y0169271D01*
X0161489Y0169238D01*
X0161515Y0169202D01*
X0161539Y0169164D01*
X0161559Y0169123D01*
X0161576Y0169082D01*
X0161589Y0169039D01*
X0161598Y0168995D01*
X0161604Y0168951D01*
X0161606Y0168906D01*
X0161606Y0169011D02*
X0161606Y0168589D01*
X0161606Y0169011D02*
X0161608Y0169051D01*
X0161614Y0169091D01*
X0161623Y0169130D01*
X0161636Y0169168D01*
X0161653Y0169204D01*
X0161673Y0169239D01*
X0161696Y0169272D01*
X0161723Y0169302D01*
X0161752Y0169330D01*
X0161783Y0169355D01*
X0161817Y0169376D01*
X0161853Y0169395D01*
X0161890Y0169410D01*
X0161929Y0169421D01*
X0161968Y0169429D01*
X0162008Y0169433D01*
X0162048Y0169433D01*
X0162088Y0169429D01*
X0162127Y0169421D01*
X0162166Y0169410D01*
X0162203Y0169395D01*
X0162239Y0169376D01*
X0162273Y0169355D01*
X0162304Y0169330D01*
X0162333Y0169302D01*
X0162360Y0169272D01*
X0162383Y0169239D01*
X0162403Y0169204D01*
X0162420Y0169168D01*
X0162433Y0169130D01*
X0162442Y0169091D01*
X0162448Y0169051D01*
X0162450Y0169011D01*
X0162450Y0168378D01*
X0162450Y0167411D02*
X0162450Y0166989D01*
X0162448Y0166950D01*
X0162443Y0166911D01*
X0162434Y0166874D01*
X0162421Y0166837D01*
X0162406Y0166801D01*
X0162387Y0166767D01*
X0162365Y0166735D01*
X0162340Y0166705D01*
X0162312Y0166677D01*
X0162282Y0166652D01*
X0162250Y0166630D01*
X0162216Y0166611D01*
X0162180Y0166595D01*
X0162143Y0166583D01*
X0162106Y0166574D01*
X0162067Y0166569D01*
X0162028Y0166567D01*
X0145533Y0175172D02*
X0145533Y0176228D01*
X0145531Y0176267D01*
X0145526Y0176306D01*
X0145517Y0176343D01*
X0145505Y0176380D01*
X0145489Y0176416D01*
X0145470Y0176450D01*
X0145448Y0176482D01*
X0145423Y0176512D01*
X0145395Y0176540D01*
X0145365Y0176565D01*
X0145333Y0176587D01*
X0145299Y0176606D01*
X0145263Y0176622D01*
X0145226Y0176634D01*
X0145189Y0176643D01*
X0145150Y0176648D01*
X0145111Y0176650D01*
X0144689Y0176650D01*
X0143300Y0176650D02*
X0143722Y0175172D01*
X0142667Y0175172D01*
X0142983Y0175594D02*
X0142983Y0174750D01*
X0144689Y0174750D02*
X0145111Y0174750D01*
X0145150Y0174752D01*
X0145189Y0174757D01*
X0145226Y0174766D01*
X0145263Y0174778D01*
X0145299Y0174794D01*
X0145333Y0174813D01*
X0145365Y0174835D01*
X0145395Y0174860D01*
X0145423Y0174888D01*
X0145448Y0174918D01*
X0145470Y0174950D01*
X0145489Y0174984D01*
X0145505Y0175020D01*
X0145517Y0175057D01*
X0145526Y0175094D01*
X0145531Y0175133D01*
X0145533Y0175172D01*
X0172650Y0203389D02*
X0172650Y0203811D01*
X0172650Y0203389D02*
X0172652Y0203350D01*
X0172657Y0203311D01*
X0172666Y0203274D01*
X0172678Y0203237D01*
X0172694Y0203201D01*
X0172713Y0203167D01*
X0172735Y0203135D01*
X0172760Y0203105D01*
X0172788Y0203077D01*
X0172818Y0203052D01*
X0172850Y0203030D01*
X0172884Y0203011D01*
X0172920Y0202995D01*
X0172957Y0202983D01*
X0172994Y0202974D01*
X0173033Y0202969D01*
X0173072Y0202967D01*
X0174128Y0202967D01*
X0174167Y0202969D01*
X0174206Y0202974D01*
X0174243Y0202983D01*
X0174280Y0202995D01*
X0174316Y0203011D01*
X0174350Y0203030D01*
X0174382Y0203052D01*
X0174412Y0203077D01*
X0174440Y0203105D01*
X0174465Y0203135D01*
X0174487Y0203167D01*
X0174506Y0203201D01*
X0174521Y0203237D01*
X0174534Y0203274D01*
X0174543Y0203311D01*
X0174548Y0203350D01*
X0174550Y0203389D01*
X0174550Y0203811D01*
X0173706Y0204778D02*
X0173178Y0204778D01*
X0173706Y0204778D02*
X0173706Y0205411D01*
X0173706Y0204778D02*
X0173764Y0204780D01*
X0173821Y0204786D01*
X0173878Y0204796D01*
X0173934Y0204809D01*
X0173989Y0204827D01*
X0174042Y0204848D01*
X0174094Y0204873D01*
X0174145Y0204901D01*
X0174193Y0204932D01*
X0174239Y0204967D01*
X0174282Y0205005D01*
X0174323Y0205046D01*
X0174361Y0205089D01*
X0174396Y0205135D01*
X0174427Y0205183D01*
X0174455Y0205234D01*
X0174480Y0205286D01*
X0174501Y0205339D01*
X0174519Y0205394D01*
X0174532Y0205450D01*
X0174542Y0205507D01*
X0174548Y0205564D01*
X0174550Y0205622D01*
X0173705Y0205411D02*
X0173703Y0205450D01*
X0173698Y0205489D01*
X0173689Y0205526D01*
X0173677Y0205563D01*
X0173661Y0205599D01*
X0173642Y0205633D01*
X0173620Y0205665D01*
X0173595Y0205695D01*
X0173567Y0205723D01*
X0173537Y0205748D01*
X0173505Y0205770D01*
X0173471Y0205789D01*
X0173435Y0205805D01*
X0173398Y0205817D01*
X0173361Y0205826D01*
X0173322Y0205831D01*
X0173283Y0205833D01*
X0173178Y0205833D01*
X0173178Y0205834D02*
X0173133Y0205832D01*
X0173089Y0205826D01*
X0173045Y0205817D01*
X0173002Y0205804D01*
X0172961Y0205787D01*
X0172920Y0205767D01*
X0172882Y0205743D01*
X0172846Y0205717D01*
X0172813Y0205687D01*
X0172782Y0205655D01*
X0172753Y0205620D01*
X0172728Y0205583D01*
X0172707Y0205544D01*
X0172688Y0205503D01*
X0172673Y0205461D01*
X0172662Y0205417D01*
X0172654Y0205373D01*
X0172650Y0205328D01*
X0172650Y0205284D01*
X0172654Y0205239D01*
X0172662Y0205195D01*
X0172673Y0205151D01*
X0172688Y0205109D01*
X0172707Y0205068D01*
X0172728Y0205029D01*
X0172753Y0204992D01*
X0172782Y0204957D01*
X0172813Y0204925D01*
X0172846Y0204895D01*
X0172882Y0204869D01*
X0172920Y0204845D01*
X0172961Y0204825D01*
X0173002Y0204808D01*
X0173045Y0204795D01*
X0173089Y0204786D01*
X0173133Y0204780D01*
X0173178Y0204778D01*
X0179467Y0193450D02*
X0180522Y0193450D01*
X0180522Y0192606D01*
X0179889Y0192606D01*
X0179889Y0192605D02*
X0179850Y0192603D01*
X0179811Y0192598D01*
X0179774Y0192589D01*
X0179737Y0192577D01*
X0179701Y0192561D01*
X0179667Y0192542D01*
X0179635Y0192520D01*
X0179605Y0192495D01*
X0179577Y0192467D01*
X0179552Y0192437D01*
X0179530Y0192405D01*
X0179511Y0192371D01*
X0179495Y0192335D01*
X0179483Y0192298D01*
X0179474Y0192261D01*
X0179469Y0192222D01*
X0179467Y0192183D01*
X0179467Y0191972D01*
X0179469Y0191933D01*
X0179474Y0191894D01*
X0179483Y0191857D01*
X0179495Y0191820D01*
X0179511Y0191784D01*
X0179530Y0191750D01*
X0179552Y0191718D01*
X0179577Y0191688D01*
X0179605Y0191660D01*
X0179635Y0191635D01*
X0179667Y0191613D01*
X0179701Y0191594D01*
X0179737Y0191578D01*
X0179774Y0191566D01*
X0179811Y0191557D01*
X0179850Y0191552D01*
X0179889Y0191550D01*
X0180522Y0191550D01*
X0181489Y0191550D02*
X0181911Y0191550D01*
X0181950Y0191552D01*
X0181989Y0191557D01*
X0182026Y0191566D01*
X0182063Y0191578D01*
X0182099Y0191594D01*
X0182133Y0191613D01*
X0182165Y0191635D01*
X0182195Y0191660D01*
X0182223Y0191688D01*
X0182248Y0191718D01*
X0182270Y0191750D01*
X0182289Y0191784D01*
X0182305Y0191820D01*
X0182317Y0191857D01*
X0182326Y0191894D01*
X0182331Y0191933D01*
X0182333Y0191972D01*
X0182333Y0193028D01*
X0182331Y0193067D01*
X0182326Y0193106D01*
X0182317Y0193143D01*
X0182305Y0193180D01*
X0182289Y0193216D01*
X0182270Y0193250D01*
X0182248Y0193282D01*
X0182223Y0193312D01*
X0182195Y0193340D01*
X0182165Y0193365D01*
X0182133Y0193387D01*
X0182099Y0193406D01*
X0182063Y0193422D01*
X0182026Y0193434D01*
X0181989Y0193443D01*
X0181950Y0193448D01*
X0181911Y0193450D01*
X0181489Y0193450D01*
D12*
X0216757Y0191067D02*
X0216757Y0181933D01*
X0219867Y0178823D02*
X0221973Y0178823D01*
X0221973Y0194177D02*
X0219867Y0194177D01*
D13*
X0177700Y0134000D02*
X0176422Y0134000D01*
X0176352Y0133998D01*
X0176281Y0133992D01*
X0176212Y0133983D01*
X0176143Y0133969D01*
X0176074Y0133952D01*
X0176007Y0133931D01*
X0175941Y0133906D01*
X0175877Y0133878D01*
X0175814Y0133846D01*
X0175753Y0133811D01*
X0175694Y0133772D01*
X0175637Y0133731D01*
X0175583Y0133686D01*
X0175531Y0133638D01*
X0175482Y0133588D01*
X0175435Y0133534D01*
X0175392Y0133479D01*
X0175352Y0133421D01*
X0175315Y0133361D01*
X0175282Y0133299D01*
X0175252Y0133235D01*
X0175225Y0133170D01*
X0175202Y0133104D01*
X0175183Y0133036D01*
X0175168Y0132967D01*
X0175156Y0132898D01*
X0175148Y0132828D01*
X0175144Y0132757D01*
X0175144Y0132687D01*
X0175148Y0132616D01*
X0175156Y0132546D01*
X0175168Y0132477D01*
X0175183Y0132408D01*
X0175202Y0132340D01*
X0175225Y0132274D01*
X0175252Y0132209D01*
X0175282Y0132145D01*
X0175315Y0132083D01*
X0175352Y0132023D01*
X0175392Y0131965D01*
X0175435Y0131910D01*
X0175482Y0131856D01*
X0175531Y0131806D01*
X0175583Y0131758D01*
X0175637Y0131713D01*
X0175694Y0131672D01*
X0175753Y0131633D01*
X0175814Y0131598D01*
X0175877Y0131566D01*
X0175941Y0131538D01*
X0176007Y0131513D01*
X0176074Y0131492D01*
X0176143Y0131475D01*
X0176212Y0131461D01*
X0176281Y0131452D01*
X0176352Y0131446D01*
X0176422Y0131444D01*
X0177700Y0131444D01*
X0176167Y0131444D02*
X0175144Y0129400D01*
X0173229Y0129400D02*
X0170673Y0129400D01*
X0171951Y0129400D02*
X0171951Y0134000D01*
X0173229Y0132978D01*
X0177700Y0134000D02*
X0177700Y0129400D01*
X0168729Y0129400D02*
X0166173Y0129400D01*
X0168729Y0129400D02*
X0166557Y0131956D01*
X0167323Y0134000D02*
X0167397Y0133998D01*
X0167471Y0133993D01*
X0167545Y0133983D01*
X0167618Y0133970D01*
X0167691Y0133954D01*
X0167762Y0133933D01*
X0167832Y0133909D01*
X0167901Y0133882D01*
X0167969Y0133851D01*
X0168035Y0133817D01*
X0168099Y0133780D01*
X0168161Y0133739D01*
X0168222Y0133695D01*
X0168279Y0133649D01*
X0168335Y0133599D01*
X0168388Y0133547D01*
X0168438Y0133492D01*
X0168485Y0133435D01*
X0168529Y0133375D01*
X0168571Y0133313D01*
X0168609Y0133250D01*
X0168644Y0133184D01*
X0168675Y0133117D01*
X0168703Y0133048D01*
X0168728Y0132978D01*
X0166557Y0131956D02*
X0166510Y0132003D01*
X0166466Y0132053D01*
X0166424Y0132105D01*
X0166385Y0132159D01*
X0166350Y0132215D01*
X0166317Y0132273D01*
X0166287Y0132333D01*
X0166261Y0132394D01*
X0166238Y0132457D01*
X0166219Y0132521D01*
X0166203Y0132585D01*
X0166190Y0132651D01*
X0166181Y0132717D01*
X0166176Y0132783D01*
X0166174Y0132850D01*
X0166173Y0132850D02*
X0166175Y0132917D01*
X0166181Y0132984D01*
X0166190Y0133050D01*
X0166204Y0133115D01*
X0166221Y0133180D01*
X0166242Y0133243D01*
X0166267Y0133305D01*
X0166295Y0133366D01*
X0166327Y0133425D01*
X0166362Y0133482D01*
X0166401Y0133537D01*
X0166442Y0133589D01*
X0166487Y0133639D01*
X0166534Y0133686D01*
X0166584Y0133731D01*
X0166636Y0133772D01*
X0166691Y0133811D01*
X0166748Y0133846D01*
X0166807Y0133878D01*
X0166868Y0133906D01*
X0166930Y0133931D01*
X0166993Y0133952D01*
X0167058Y0133969D01*
X0167123Y0133983D01*
X0167189Y0133992D01*
X0167256Y0133998D01*
X0167323Y0134000D01*
M02*
